nColumns=19
nRows=85
DataType=double
version=3
OpenSimVersion=4.1
endheader
time	ground_force_calcn_r_vx	ground_force_calcn_r_vy	ground_force_calcn_r_vz	ground_force_calcn_r_px	ground_force_calcn_r_py	ground_force_calcn_r_pz	ground_force_calcn_r_mx	ground_force_calcn_r_my	ground_force_calcn_r_mz	ground_force_calcn_l_vx	ground_force_calcn_l_vy	ground_force_calcn_l_vz	ground_force_calcn_l_px	ground_force_calcn_l_py	ground_force_calcn_l_pz	ground_force_calcn_l_mx	ground_force_calcn_l_my	ground_force_calcn_l_mz
2.75833	-14.1115	33.2212	-15.7459	1.36572	0	-0.209902	0.357369	-0.841317	0.398761	0	0	0	0	0	0	0	0	0
2.76667	-44.7598	101.794	-29.6992	1.428	0	-0.247426	-0.90715	2.06306	-0.601915	0	0	0	0	0	0	0	0	0
2.775	-108.957	261.319	-48.1551	1.4422	0	-0.253076	-2.25007	5.39648	-0.994449	0	0	0	0	0	0	0	0	0
2.78333	-188.446	520.151	-65.6248	1.43982	0	-0.254817	-2.97787	8.21954	-1.03702	0	0	0	0	0	0	0	0	0
2.79167	-229.118	828.435	-72.7454	1.42073	0	-0.257057	-2.66993	9.65383	-0.847708	0	0	0	0	0	0	0	0	0
2.8	-224.389	1131.11	-61.7188	1.3854	0	-0.260322	-1.74731	8.80789	-0.480603	0	0	0	0	0	0	0	0	0
2.80833	-232.28	1382.42	-32.168	1.34856	0	-0.264102	-0.942712	5.61055	-0.130554	0	0	0	0	0	0	0	0	0
2.81667	-265.768	1555.32	6.40573	1.31963	0	-0.267039	-0.172642	1.01033	0.00416114	0	0	0	0	0	0	0	0	0
2.825	-287.688	1669.95	38.5429	1.29397	0	-0.269091	0.653599	-3.79395	-0.0875656	0	0	0	0	0	0	0	0	0
2.83333	-266.661	1760.05	53.8652	1.26297	0	-0.271015	1.19194	-7.86719	-0.24077	0	0	0	0	0	0	0	0	0
2.84167	-202.466	1832.58	55.1027	1.22514	0	-0.272633	1.17533	-10.6383	-0.319874	0	0	0	0	0	0	0	0	0
2.85	-125.538	1870.43	52.6722	1.18647	0	-0.273368	0.797087	-11.876	-0.334435	0	0	0	0	0	0	0	0	0
2.85833	-49.3329	1860.16	52.4813	1.14912	0	-0.273178	0.31184	-11.7583	-0.331741	0	0	0	0	0	0	0	0	0
2.86667	33.8846	1798.92	52.2332	1.11102	0	-0.273036	-0.201499	-10.6975	-0.310611	0	0	0	0	0	0	0	0	0
2.875	119.349	1686.65	48.8687	1.07256	0	-0.273739	-0.645978	-9.12899	-0.264502	0	0	0	0	0	0	0	0	0
2.88333	192.598	1527.3	44.4839	1.03557	0	-0.274671	-0.935155	-7.41576	-0.215991	0	0	0	0	0	0	0	0	0
2.89167	240.557	1328.15	42.4291	1.00093	0	-0.274883	-1.04803	-5.78633	-0.184849	0	0	0	0	0	0	0	0	0
2.9	262.299	1100.51	41.389	0.967074	0	-0.274268	-1.02801	-4.31313	-0.162213	0	0	0	0	0	0	0	0	0
2.90833	257.729	858.556	37.0375	0.933236	0	-0.273457	-0.89799	-2.99142	-0.129048	0	0	0	0	0	0	0	0	0
2.91667	226.113	621.171	28.1256	0.901197	0	-0.27301	-0.667412	-1.83349	-0.0830175	0	0	0	0	0	0	0	0	0
2.925	178.359	411.795	17.9557	0.872231	0	-0.272183	-0.383813	-0.886148	-0.0386392	0	0	0	0	0	0	0	0	0
2.93333	127.537	247.198	10.1217	0.849434	0	-0.268596	-0.113111	-0.219237	-0.00897681	0	0	0	0	0	0	0	0	0
2.94167	82.7782	133.36	5.19694	0.837124	0	-0.258468	0.0751537	0.121076	0.00471826	0	0	0	0	0	0	0	0	0
2.95	47.2755	64.5252	1.98574	0.845505	0	-0.238877	0.121317	0.165582	0.00509573	0	0	0	0	0	0	0	0	0
2.95833	21.6699	28.2414	0.0350094	0.91889	0	-0.207243	0.00933368	0.0121642	1.50793e-05	0	0	0	0	0	0	0	0	0
2.96667	6.98881	13.1538	-0.363657	1.06343	0	-0.149564	-0.182992	-0.344412	0.00952183	0	0	0	0	0	0	0	0	0
2.975	0	0	0	0	0	0	0	0	0	0	0	0	0	0	0	0	0	0
2.98333	0	0	0	0	0	0	0	0	0	0	0	0	0	0	0	0	0	0
2.99167	0	0	0	0	0	0	0	0	0	0	0	0	0	0	0	0	0	0
3	0	0	0	0	0	0	0	0	0	0	0	0	0	0	0	0	0	0
3.00833	0	0	0	0	0	0	0	0	0	0	0	0	0	0	0	0	0	0
3.01667	0	0	0	0	0	0	0	0	0	0	0	0	0	0	0	0	0	0
3.025	0	0	0	0	0	0	0	0	0	0	0	0	0	0	0	0	0	0
3.03333	0	0	0	0	0	0	0	0	0	0	0	0	0	0	0	0	0	0
3.04167	0	0	0	0	0	0	0	0	0	0	0	0	0	0	0	0	0	0
3.05	0	0	0	0	0	0	0	0	0	0	0	0	0	0	0	0	0	0
3.05833	0	0	0	0	0	0	0	0	0	0	0	0	0	0	0	0	0	0
3.06667	0	0	0	0	0	0	0	0	0	0	0	0	0	0	0	0	0	0
3.075	0	0	0	0	0	0	0	0	0	0.140356	14.4471	0.0175841	1.31858	0	-0.200857	0.011109	1.14347	0.00139176
3.08333	0	0	0	0	0	0	0	0	0	-10.8305	38.3193	0.266691	1.36359	0	-0.286936	0.195061	-0.690147	-0.00480322
3.09167	0	0	0	0	0	0	0	0	0	-39.6832	109.869	4.40722	1.3834	0	-0.315222	0.992749	-2.74858	-0.110255
3.1	0	0	0	0	0	0	0	0	0	-96.8877	268.134	15.1748	1.39325	0	-0.322092	1.73581	-4.8038	-0.271867
3.10833	0	0	0	0	0	0	0	0	0	-165.352	515.791	31.6547	1.39172	0	-0.319727	2.04692	-6.38506	-0.391859
3.11667	0	0	0	0	0	0	0	0	0	-200.498	807.481	45.5123	1.37204	0	-0.31451	1.70201	-6.85466	-0.386351
3.125	0	0	0	0	0	0	0	0	0	-197.319	1111.54	43.7651	1.33339	0	-0.309256	0.989656	-5.57495	-0.219505
3.13333	0	0	0	0	0	0	0	0	0	-199.393	1406.51	20.4249	1.29142	0	-0.304902	0.355349	-2.50663	-0.0364004
3.14167	0	0	0	0	0	0	0	0	0	-214.669	1652.67	-15.9949	1.25754	0	-0.301093	-0.212858	1.63873	-0.0158599
3.15	0	0	0	0	0	0	0	0	0	-213.732	1833.09	-49.5256	1.22746	0	-0.297685	-0.685221	5.87684	-0.158778
3.15833	0	0	0	0	0	0	0	0	0	-180.617	1958.31	-68.7578	1.19504	0	-0.295201	-0.860627	9.33119	-0.327626
3.16667	0	0	0	0	0	0	0	0	0	-124.569	2033.23	-71.7683	1.16082	0	-0.293705	-0.701807	11.455	-0.404336
3.175	0	0	0	0	0	0	0	0	0	-65.6612	2052.49	-64.2712	1.12851	0	-0.292861	-0.389239	12.1672	-0.380999
3.18333	0	0	0	0	0	0	0	0	0	-10.0202	2015.61	-54.9921	1.09854	0	-0.292242	-0.0587547	11.8187	-0.322452
3.19167	0	0	0	0	0	0	0	0	0	47.0653	1927.8	-50.2812	1.06871	0	-0.291453	0.267342	10.9504	-0.285609
3.2	0	0	0	0	0	0	0	0	0	99.7319	1790.07	-50.9572	1.03861	0	-0.290177	0.558915	10.0319	-0.285574
3.20833	0	0	0	0	0	0	0	0	0	143.412	1600.92	-53.949	1.00878	0	-0.288123	0.833257	9.30171	-0.313456
3.21667	0	0	0	0	0	0	0	0	0	181.772	1364.37	-56.3913	0.977866	0	-0.28543	1.16189	8.72113	-0.360455
3.225	0	0	0	0	0	0	0	0	0	216.537	1095.32	-57.0917	0.943196	0	-0.28258	1.58981	8.04184	-0.419166
3.23333	0	0	0	0	0	0	0	0	0	232.736	821.282	-54.9763	0.905832	0	-0.279777	1.98263	6.99633	-0.468331
3.24167	0	0	0	0	0	0	0	0	0	212.177	573.051	-48.6363	0.872524	0	-0.27694	2.05317	5.54523	-0.470638
3.25	0	0	0	0	0	0	0	0	0	162.152	371.529	-38.3674	0.850019	0	-0.273452	1.68349	3.85726	-0.398336
3.25833	0	0	0	0	0	0	0	0	0	105.819	221.098	-27.1305	0.840378	0	-0.269202	1.00772	2.10552	-0.258364
3.26667	0	0	0	0	0	0	0	0	0	61.2654	116.572	-18.0173	0.835796	0	-0.267166	0.237303	0.451523	-0.0697873
3.275	0	0	0	0	0	0	0	0	0	32.336	52.128	-11.4735	0.823718	0	-0.273583	-0.503519	-0.811712	0.17866
3.28333	0	0	0	0	0	0	0	0	0	14.8928	20.0704	-6.14758	0.838952	0	-0.290956	-1.08153	-1.45753	0.446444
3.29167	0	0	0	0	0	0	0	0	0	0	0	0	0	0	0	0	0	0
3.3	0	0	0	0	0	0	0	0	0	0	0	0	0	0	0	0	0	0
3.30833	0	0	0	0	0	0	0	0	0	0	0	0	0	0	0	0	0	0
3.31667	0	0	0	0	0	0	0	0	0	0	0	0	0	0	0	0	0	0
3.325	0	0	0	0	0	0	0	0	0	0	0	0	0	0	0	0	0	0
3.33333	0	0	0	0	0	0	0	0	0	0	0	0	0	0	0	0	0	0
3.34167	0	0	0	0	0	0	0	0	0	0	0	0	0	0	0	0	0	0
3.35	0	0	0	0	0	0	0	0	0	0	0	0	0	0	0	0	0	0
3.35833	0	0	0	0	0	0	0	0	0	0	0	0	0	0	0	0	0	0
3.36667	0	0	0	0	0	0	0	0	0	0	0	0	0	0	0	0	0	0
3.375	0	0	0	0	0	0	0	0	0	0	0	0	0	0	0	0	0	0
3.38333	0	0	0	0	0	0	0	0	0	0	0	0	0	0	0	0	0	0
3.39167	0	0	0	0	0	0	0	0	0	0	0	0	0	0	0	0	0	0
3.4	-1.099	13.8809	-5.73957	1.22062	0	-0.149633	0.257173	-3.24823	1.3431	0	0	0	0	0	0	0	0	0
3.40833	-12.2268	41.7213	-14.0754	1.3364	0	-0.227846	0.390168	-1.33137	0.449161	0	0	0	0	0	0	0	0	0
3.41667	-46.5857	118.803	-26.4723	1.36043	0	-0.261565	-0.449451	1.14619	-0.2554	0	0	0	0	0	0	0	0	0
3.425	-111.178	271.349	-41.2106	1.36903	0	-0.27171	-1.55169	3.78717	-0.575169	0	0	0	0	0	0	0	0	0
3.43333	-177.427	487.112	-53.6149	1.366	0	-0.27576	-2.24147	6.15377	-0.677327	0	0	0	0	0	0	0	0	0
3.44167	-198.417	731.889	-57.6884	1.34183	0	-0.278589	-2.08236	7.68109	-0.605434	0	0	0	0	0	0	0	0	0
3.45	-184.646	992.828	-48.938	1.29953	0	-0.282074	-1.40951	7.57883	-0.373573	0	0	0	0	0	0	0	0	0
3.45833	-183.901	1250.92	-25.882	1.25776	0	-0.286318	-0.83338	5.66875	-0.117289	0	0	0	0	0	0	0	0	0
